<svg width="72" height="14" viewBox="0 0 72 14" fill="none" xmlns="http://www.w3.org/2000/svg">
<g clip-path="url(#clip0_53_422)">
<path fill-rule="evenodd" clip-rule="evenodd" d="M47.4525 7.71084C47.4952 7.99084 47.5165 8.20622 47.5805 8.42161C48.0497 10.4247 49.6066 11.7601 51.6326 11.9324C53.4241 12.0831 54.8317 11.3939 55.8767 9.90776C56.3886 9.19699 57.2203 9.06776 57.8814 9.6493C58.2653 9.97238 58.308 10.4031 58.0094 10.8124C57.8388 11.0278 57.6895 11.2431 57.5189 11.4801C56.8364 12.4278 55.9407 13.0739 54.8317 13.4616C53.0402 14.0862 51.2487 14.1724 49.4786 13.5047C47.09 12.6216 45.6824 10.8555 45.2772 8.33546C45.0426 6.78469 45.1919 5.23392 45.8956 3.83392C46.9193 1.83084 48.5189 0.603149 50.7369 0.236995C52.2085 7.18832e-05 53.6587 0.150841 55.0236 0.818533C56.9644 1.74469 58.1374 3.31699 58.5852 5.40623C58.7132 5.98776 58.7559 6.5693 58.7985 7.15084C58.8412 7.51699 58.6705 7.66776 58.308 7.6893C58.1374 7.6893 57.9881 7.6893 57.8175 7.6893C54.5118 7.6893 51.2061 7.6893 47.9217 7.6893C47.7724 7.71084 47.6658 7.71084 47.4525 7.71084ZM56.4739 5.51392C56.1966 3.64007 53.9573 2.00315 51.8885 2.13238C49.7345 2.26161 47.6018 3.92007 47.5165 5.51392C50.481 5.51392 53.4881 5.51392 56.4739 5.51392Z" fill="#D9D9D9"/>
<path fill-rule="evenodd" clip-rule="evenodd" d="M30.5189 7.64633C30.5402 7.84017 30.5615 7.9694 30.5829 8.12017C30.9881 10.3386 32.7796 11.8679 34.9976 11.9109C36.6824 11.9325 37.9833 11.2433 38.9644 9.86479C39.4762 9.13248 40.3933 9.04633 41.0331 9.69248C41.3317 10.0156 41.3957 10.4032 41.0971 10.7909C40.9691 10.9848 40.8412 11.1571 40.6919 11.3079C39.9668 12.3848 38.9644 13.074 37.7487 13.4833C35.9573 14.0863 34.1658 14.1294 32.4383 13.4402C29.9644 12.4709 28.5781 10.554 28.2796 7.88325C28.1303 6.59094 28.2582 5.34171 28.7914 4.15709C29.8364 1.91709 31.5213 0.538632 33.9739 0.215555C35.2748 0.0432472 36.5758 0.15094 37.7701 0.646324C39.9454 1.55094 41.2037 3.25248 41.6942 5.5571C41.7796 6.07402 41.8435 6.63402 41.8649 7.15094C41.8862 7.58171 41.8009 7.66786 41.353 7.66786C40.5852 7.66786 39.7748 7.66786 38.9857 7.66786C36.3412 7.66786 33.6966 7.66786 31.0947 7.66786C30.9028 7.64633 30.7322 7.64633 30.5189 7.64633ZM39.5829 5.4494C39.3056 3.59709 37.1303 2.02479 34.9976 2.06786C32.9288 2.11094 30.7748 3.79094 30.6042 5.4494C33.59 5.4494 36.5544 5.4494 39.5829 5.4494Z" fill="#D9D9D9"/>
<path fill-rule="evenodd" clip-rule="evenodd" d="M67.6279 8.63704C67.7985 8.78781 67.8838 8.87396 67.9905 8.96011C69.1421 9.95088 70.2938 10.9417 71.4241 11.9324C71.4881 11.997 71.5947 12.0832 71.6587 12.1478C72.0853 12.5786 72.1279 13.2032 71.7227 13.634C71.3388 14.0647 70.7417 14.1293 70.2938 13.7632C69.4834 13.0955 68.7156 12.4063 67.9265 11.7386C66.7962 10.7693 65.6872 9.80011 64.5568 8.83088C64.4715 8.74473 64.3436 8.65858 64.1729 8.52934C64.1729 8.76627 64.1516 8.91704 64.1516 9.06781C64.1516 11.8032 64.1516 9.75704 64.1516 12.4924C64.1516 12.6217 64.1516 12.7509 64.1516 12.8801C64.109 13.4832 63.6611 13.914 63.0639 13.8709C62.4881 13.8493 62.1042 13.4186 62.0829 12.8155C62.0829 12.6863 62.0829 12.557 62.0829 12.4278C62.0829 7.02165 62.0829 6.39704 62.0829 0.990883C62.0829 0.818575 62.0829 0.667806 62.0829 0.495498C62.0829 0.107806 62.1255 0.0431907 62.4881 0.0431907C62.9786 0.0216522 63.4691 0.0216522 63.9597 0.0216522C65.1327 0.0216522 66.3483 0.0647291 67.5213 0.000113736C69.5047 -0.0860401 71.7227 1.52934 71.936 3.87704C72.1279 5.98781 70.699 7.99088 68.5663 8.42165C68.2891 8.48627 67.9905 8.57242 67.6279 8.63704ZM64.0236 6.97858C64.1516 7.00011 64.2369 7.00011 64.3009 7.00011C65.2819 7.00011 66.2843 7.00011 67.2654 7.00011C67.5426 7.00011 67.8412 6.97858 68.1184 6.87088C69.0355 6.59088 69.7606 6.03088 69.9952 5.04011C70.4004 3.33858 69.1421 1.78781 67.4146 1.78781C66.3909 1.78781 65.3886 1.78781 64.3436 1.78781C64.2156 1.78781 64.109 1.80934 63.981 1.80934C64.0236 3.53242 64.0236 5.23396 64.0236 6.97858Z" fill="#D9D9D9"/>
<path fill-rule="evenodd" clip-rule="evenodd" d="M22.8411 7.6678C20.8791 7.6678 18.981 7.6678 17.0402 7.6678C17.0402 7.84011 17.0189 7.99088 17.0189 8.14165C17.0189 9.64934 17.0189 11.1355 17.0189 12.6432C17.0189 12.837 17.0189 13.0309 16.9762 13.1817C16.8269 13.634 16.3577 13.914 15.9099 13.8924C15.4194 13.8493 15.0141 13.4616 14.9502 12.9663C14.9288 12.837 14.9502 12.7293 14.9502 12.6001C14.9502 7.23704 14.9288 6.59088 14.9288 1.24934C14.9288 1.03396 14.9502 0.818575 15.0141 0.624729C15.1848 0.172422 15.654 -0.0860398 16.1445 -0.0214244C16.5923 0.0431909 16.9762 0.430883 17.0189 0.904729C17.0402 1.0555 17.0189 1.18473 17.0189 1.3355C17.0189 4.09242 17.0402 2.13242 17.0402 4.88934C17.0402 5.06165 17.0615 5.21242 17.0615 5.36319C17.4241 5.44934 22.4573 5.44934 22.8411 5.36319C22.8411 5.23396 22.8625 5.10473 22.8625 4.95396C22.8625 3.74781 22.8625 2.52011 22.8625 1.31396C22.8625 1.18473 22.8625 1.07704 22.8625 0.947806C22.9051 0.409345 23.3103 0.000114035 23.8435 -0.0214244C24.3767 -0.0429629 24.8672 0.366268 24.9312 0.904729C24.9525 1.03396 24.9312 1.14165 24.9312 1.27088C24.9312 5.04011 24.9312 8.7878 24.9312 12.557C24.9312 12.6863 24.9312 12.794 24.9312 12.9232C24.8672 13.4616 24.398 13.8924 23.8648 13.8709C23.3317 13.8493 22.9051 13.4186 22.8411 12.8801C22.8411 12.7509 22.8411 12.6432 22.8411 12.514C22.8411 11.0709 22.8411 9.58473 22.8411 8.14165C22.8411 8.01242 22.8411 7.86165 22.8411 7.6678Z" fill="#D9D9D9"/>
<path fill-rule="evenodd" clip-rule="evenodd" d="M5.8649 13.9785C4.47865 13.957 3.1777 13.6554 1.98339 12.9231C1.47154 12.6216 1.00234 12.2339 0.618457 11.7816C0.426514 11.5447 0.191916 11.3077 0.106608 11.0062C-0.0213538 10.6185 -0.0426808 10.1877 0.319878 9.84313C0.725092 9.45544 1.27959 9.30467 1.8341 9.67082C2.36727 10.0585 2.6232 10.5539 3.07106 11.0062C3.71087 11.6524 4.54263 11.997 5.43836 12.1047C6.27011 12.1908 7.08054 12.1693 7.89097 11.8893C8.21087 11.7601 8.55211 11.6093 8.82936 11.3939C9.3412 10.8124 9.49049 9.9939 8.87201 9.4339C8.57343 9.17544 8.18955 8.98159 7.80566 8.80928C6.86727 8.40005 5.88623 8.12005 4.90519 7.86159C4.09476 7.66775 3.32699 7.40928 2.51656 7.17236C2.21798 7.08621 1.9194 6.9139 1.64215 6.76313C0.895708 6.3539 0.469168 5.70775 0.341205 4.88928C0.106608 3.18775 0.725092 1.65852 2.19666 0.904669C4.49997 -0.236869 6.8886 -0.129177 9.19192 1.18467C9.61846 1.42159 10.0237 1.78775 10.3862 2.11082C10.6635 2.34775 10.8767 2.69236 10.9834 3.05852C11.09 3.51082 10.8767 3.98467 10.3222 4.1139C9.85305 4.22159 9.42651 4.07082 9.08528 3.70467C9.0213 3.64005 8.95732 3.5539 8.91466 3.48928C8.38149 2.67082 7.59239 2.21852 6.654 2.04621C5.71561 1.8739 4.77722 1.89544 3.88149 2.26159C3.56158 2.39082 3.22035 2.56313 2.96443 2.80005C2.58054 3.31698 2.43125 4.00621 2.9431 4.65236C3.34831 5.04005 3.81751 5.25544 4.32936 5.36313C5.45969 5.64313 6.61135 5.94467 7.74168 6.22467C8.4668 6.41852 9.17059 6.65544 9.83173 7.04313C10.6848 7.49544 11.3033 8.16313 11.5166 9.13236C11.7725 10.317 11.5166 11.437 10.5995 12.2985C9.55447 13.2462 8.36016 13.7631 6.97391 13.9139C6.59002 13.957 6.20613 13.957 5.8649 13.9785Z" fill="#D9D9D9"/>
</g>
<defs>
<clipPath id="clip0_53_422">
<rect width="72" height="14" fill="white"/>
</clipPath>
</defs>
</svg>
