<svg width="18" height="18" viewBox="0 0 18 18" fill="none" xmlns="http://www.w3.org/2000/svg">
<path d="M9.825 2.025C10.65 1.65 11.325 1.5 12.45 1.5C15.225 1.5 17.25 3.825 17.25 6.825C17.25 9.075 15.975 11.325 13.65 13.425C12.375 14.55 10.8 15.675 9.675 16.2L9 16.575L8.325 16.275C7.2 15.675 5.625 14.55 4.35 13.5C2.025 11.325 0.75 9.15 0.75 6.825C0.75 3.825 2.775 1.5 5.625 1.5C6.675 1.5 7.425 1.65 8.25 2.025C8.55 2.175 8.775 2.325 9.075 2.55C9.225 2.325 9.525 2.175 9.825 2.025ZM12.6 12.3C14.7 10.425 15.75 8.625 15.75 6.825C15.75 4.65 14.325 3 12.375 3C11.475 3 11.025 3.075 10.425 3.375C10.05 3.525 9.75 3.75 9.45 4.05L9 4.65L8.475 4.05C8.175 3.75 7.875 3.525 7.575 3.375C6.9 3.075 6.45 3 5.625 3C3.675 3 2.25 4.575 2.25 6.825C2.25 8.625 3.3 10.425 5.4 12.3C6.525 13.35 8.025 14.325 9 14.85C10.05 14.4 11.475 13.35 12.6 12.3Z" fill="black"/>
</svg>
