<svg width="43" height="43" viewBox="0 0 43 43" fill="none" xmlns="http://www.w3.org/2000/svg">
<g clip-path="url(#clip0_37_120)">
<path d="M21.5 43C33.3741 43 43 33.3741 43 21.5C43 9.62588 33.3741 0 21.5 0C9.62588 0 0 9.62588 0 21.5C0 33.3741 9.62588 43 21.5 43Z" fill="white"/>
<path d="M28.1749 19.9879L19.1397 13.7924C18.7341 13.4974 18.2915 13.3499 17.9596 13.3499C17.2589 13.3499 16.8533 13.903 16.8533 14.7881V28.1749C16.8533 29.0969 17.2589 29.6131 17.9227 29.6131C18.2915 29.6131 18.6972 29.4656 19.1028 29.1706L28.138 22.9751C28.7281 22.5694 29.06 22.0531 29.06 21.4631C29.06 20.873 28.7649 20.3936 28.1749 19.9879Z" fill="#8D0300"/>
</g>
<defs>
<clipPath id="clip0_37_120">
<rect width="43" height="43" fill="white"/>
</clipPath>
</defs>
</svg>
